<?xml version="1.0" standalone="no"?>
<!DOCTYPE svg PUBLIC "-//W3C//DTD SVG 20010904//EN"
 "http://www.w3.org/TR/2001/REC-SVG-20010904/DTD/svg10.dtd">
<svg version="1.0" xmlns="http://www.w3.org/2000/svg"
 width="512.000000pt" height="512.000000pt" viewBox="0 0 512.000000 512.000000"
 preserveAspectRatio="xMidYMid meet">
<metadata>
Created by potrace 1.14, written by Peter Selinger 2001-2017
</metadata>
<g transform="translate(0.000000,512.000000) scale(0.100000,-0.100000)"
fill="#000000" stroke="none">
<path d="M684 3606 c-20 -9 -35 -25 -43 -46 -16 -47 -16 -2053 0 -2100 23 -64
-102 -60 1897 -60 1331 0 1828 3 1852 11 63 22 60 -25 60 1099 0 1124 3 1077
-60 1099 -24 8 -520 11 -1854 11 -1510 -1 -1826 -3 -1852 -14z m3600 -162 l26
-27 0 -892 0 -892 -26 -27 -27 -26 -1697 0 -1697 0 -27 26 -26 27 0 892 0 892
26 27 27 26 1697 0 1697 0 27 -26z"/>
<path d="M2530 1250 c0 -19 -7 -20 -247 -20 l-246 0 -53 -50 -53 -50 672 0
671 0 -49 50 -49 50 -248 0 c-241 0 -248 1 -248 20 0 18 -7 20 -75 20 -68 0
-75 -2 -75 -20z"/>
</g>
</svg>
